<svg width="69" height="64" viewBox="0 0 69 64" fill="none" xmlns="http://www.w3.org/2000/svg">
<path d="M19.6694 2.421C19.3363 0.921822 20.8113 -0.346303 22.2406 0.220591C25.1073 1.35707 29.1561 2.49892 34.0728 2.53115C39.3065 2.56608 43.5919 1.33289 46.5392 0.142677C47.9282 -0.418844 49.3816 0.747186 49.1504 2.22756C48.8282 4.28826 47.9953 6.95346 45.9344 9.41717C41.6224 14.5756 35.4189 14.6885 34.5376 14.6912C33.5194 14.6562 27.4743 14.35 23.0842 9.27209C21.0665 6.94005 20.1154 4.42796 19.6694 2.42369V2.421Z" fill="#2C2C70"/>
<path d="M52.6488 4.45499C53.78 3.41524 55.6148 4.06274 55.8378 5.58071C56.2867 8.63014 57.3238 12.7086 59.7526 16.9831C62.3398 21.5343 65.5475 24.6267 68.0542 26.5853C69.2338 27.5069 68.9516 29.35 67.5548 29.89C65.6094 30.6423 62.8854 31.2522 59.7204 30.7014C53.0946 29.5461 49.8978 24.2318 49.4546 23.4688C48.976 22.5688 46.2194 17.1792 48.42 10.8386C49.4328 7.92621 51.1309 5.8467 52.6436 4.45499H52.6488Z" fill="#2C2C70"/>
<path d="M67.3772 34.0329C68.8415 34.4924 69.2016 36.4053 67.9981 37.3591C65.5798 39.272 62.568 42.2112 60.0801 46.4508C57.4336 50.9644 56.359 55.2928 55.9158 58.4418C55.7089 59.9248 53.9708 60.6018 52.8047 59.6613C51.1819 58.3529 49.2905 56.2978 48.1863 53.2829C45.8755 46.9694 48.8768 41.5423 49.3175 40.7765C49.8574 39.9114 53.1457 34.8309 59.7391 33.5682C62.767 32.9878 65.4187 33.4204 67.3772 34.0356V34.0329Z" fill="#2C2C70"/>
<path d="M49.1264 61.5793C49.46 63.0785 47.9848 64.3464 46.5553 63.7799C43.689 62.6431 39.6399 61.5014 34.7232 61.4692C29.4895 61.4343 25.2043 62.6674 22.2569 63.8574C20.8679 64.4191 19.4144 63.2531 19.6455 61.7727C19.9679 59.7118 20.8007 57.0467 22.8614 54.5831C27.1736 49.4247 33.3772 49.3119 34.2584 49.3093C35.2767 49.3442 41.3218 49.6503 45.7119 54.7281C47.7296 57.0602 48.6806 59.5725 49.1264 61.5767V61.5793Z" fill="#2C2C70"/>
<path d="M16.1474 59.5456C15.0163 60.5854 13.1813 59.9379 12.9583 58.4196C12.5096 55.3704 11.4725 51.2918 9.04376 47.0174C6.45647 42.4661 3.24855 39.3738 0.74185 37.4151C-0.437609 36.4936 -0.155506 34.6505 1.24158 34.1105C3.18675 33.3582 5.91107 32.7484 9.07598 33.2991C15.7014 34.4544 18.8986 39.7687 19.3419 40.5317C19.8201 41.4318 22.5767 46.8214 20.3763 53.162C19.3634 56.0745 17.6654 58.154 16.1528 59.5456H16.1474Z" fill="#2C2C70"/>
<path d="M1.41893 29.968C-0.0453254 29.5085 -0.405344 27.5956 0.798297 26.6418C3.21633 24.7289 6.2281 21.7897 8.71603 17.55C11.3624 13.0364 12.4371 8.70807 12.8804 5.55927C13.0872 4.07622 14.8256 3.39917 15.9916 4.33951C17.6144 5.64792 19.5058 7.70326 20.61 10.7177C22.9206 17.0315 19.9195 22.4586 19.4789 23.2243C18.9389 24.0895 15.6504 29.17 9.05722 30.4327C6.02929 31.0131 3.37753 30.5805 1.41893 29.9653V29.968Z" fill="#2C2C70"/>
<path d="M19.6694 2.421C19.3363 0.921822 20.8113 -0.346303 22.2406 0.220591C25.1073 1.35707 29.1561 2.49892 34.0728 2.53115C39.3065 2.56608 43.5919 1.33289 46.5392 0.142677C47.9282 -0.418844 49.3816 0.747186 49.1504 2.22756C48.8282 4.28826 47.9953 6.95346 45.9344 9.41717C41.6224 14.5756 35.4189 14.6885 34.5376 14.6912C33.5194 14.6562 27.4743 14.35 23.0842 9.27209C21.0665 6.94005 20.1154 4.42796 19.6694 2.42369V2.421Z" fill="#2C2C70"/>
<path d="M34.3978 44.089C41.075 44.089 46.4878 38.6761 46.4878 31.9989C46.4878 25.3216 41.075 19.9087 34.3978 19.9087C27.7206 19.9087 22.3076 25.3216 22.3076 31.9989C22.3076 38.6761 27.7206 44.089 34.3978 44.089Z" fill="#2C2C70"/>
</svg>
